<svg width="44" height="58" viewBox="0 0 44 58" fill="none" xmlns="http://www.w3.org/2000/svg">
  <!-- Define gradients and effects -->
  <defs>
    <!-- Silver gradient for shackle -->
    <linearGradient id="silverGradient" x1="0%" y1="0%" x2="100%" y2="100%">
      <stop offset="0%" style="stop-color:#f8f9fa;stop-opacity:1" />
      <stop offset="25%" style="stop-color:#e9ecef;stop-opacity:1" />
      <stop offset="50%" style="stop-color:#dee2e6;stop-opacity:1" />
      <stop offset="75%" style="stop-color:#adb5bd;stop-opacity:1" />
      <stop offset="100%" style="stop-color:#6c757d;stop-opacity:1" />
    </linearGradient>
    
    <!-- Blue gradient for lock body -->
    <linearGradient id="blueGradient" x1="0%" y1="0%" x2="100%" y2="100%">
      <stop offset="0%" style="stop-color:#4fc3f7;stop-opacity:1" />
      <stop offset="30%" style="stop-color:#2196f3;stop-opacity:1" />
      <stop offset="70%" style="stop-color:#1976d2;stop-opacity:1" />
      <stop offset="100%" style="stop-color:#0d47a1;stop-opacity:1" />
    </linearGradient>
    
    <!-- Shine effect gradient -->
    <linearGradient id="shineGradient" x1="0%" y1="0%" x2="100%" y2="100%">
      <stop offset="0%" style="stop-color:#ffffff;stop-opacity:0.4" />
      <stop offset="50%" style="stop-color:#ffffff;stop-opacity:0.1" />
      <stop offset="100%" style="stop-color:#ffffff;stop-opacity:0" />
    </linearGradient>
    
    <!-- Shadow filter -->
    <filter id="dropShadow" x="-50%" y="-50%" width="200%" height="200%">
      <feDropShadow dx="2" dy="4" stdDeviation="3" flood-color="#000000" flood-opacity="0.3"/>
    </filter>
    
    <!-- Inner shadow for depth -->
    <filter id="innerShadow" x="-50%" y="-50%" width="200%" height="200%">
      <feOffset dx="0" dy="1"/>
      <feGaussianBlur stdDeviation="1" result="offset-blur"/>
      <feFlood flood-color="#000000" flood-opacity="0.2"/>
      <feComposite in2="offset-blur" operator="in"/>
    </filter>
    
    <!-- Metallic reflection -->
    <linearGradient id="metalReflection" x1="0%" y1="0%" x2="0%" y2="100%">
      <stop offset="0%" style="stop-color:#ffffff;stop-opacity:0.8" />
      <stop offset="40%" style="stop-color:#ffffff;stop-opacity:0.2" />
      <stop offset="60%" style="stop-color:#000000;stop-opacity:0.1" />
      <stop offset="100%" style="stop-color:#000000;stop-opacity:0.3" />
    </linearGradient>
  </defs>
  
      <!-- Lock shackle with silver metallic effect -->
  <g filter="url(#dropShadow)">
    <!-- Main shackle structure - better proportions -->
    <path d="M12 22 L12 12 C12 5.925 17.925 0 24 0 L20 0 C26.075 0 32 5.925 32 12 L32 22" 
          stroke="url(#silverGradient)" 
          stroke-width="3.8" 
          stroke-linecap="round" 
          fill="none"/>
    
    <!-- Metallic reflection on shackle -->
    <path d="M13.5 22 L13.5 12 C13.5 6.701 17.701 2.5 24 2.5 L20 2.5 C26.299 2.5 30.5 6.701 30.5 12 L30.5 22" 
          stroke="url(#metalReflection)" 
          stroke-width="1.4" 
          stroke-linecap="round" 
          fill="none"
          opacity="0.8"/>
    
    <!-- Inner shackle detail for realism -->
    <path d="M14.5 22 L14.5 12 C14.5 7.253 18.253 3.5 24 3.5 L20 3.5 C25.747 3.5 29.5 7.253 29.5 12 L29.5 22" 
          stroke="#ffffff" 
          stroke-width="0.7" 
          stroke-linecap="round" 
          fill="none"
          opacity="0.6"/>
  </g>
  
  <!-- Lock body with blue gradient and depth - balanced proportions -->
  <g filter="url(#dropShadow)">
    <!-- Main body -->
    <rect x="6" y="22" width="32" height="30" 
          rx="3.5" ry="3.5" 
          fill="url(#blueGradient)"/>
    
    <!-- Inner shadow for depth -->
    <rect x="6.5" y="22.5" width="31" height="29" 
          rx="3" ry="3" 
          fill="none"
          stroke="url(#innerShadow)"
          stroke-width="0.5"/>
    
    <!-- Shine effect overlay -->
    <rect x="6" y="22" width="32" height="30" 
          rx="3.5" ry="3.5" 
          fill="url(#shineGradient)"/>
    
    <!-- Top highlight -->
    <rect x="8" y="24" width="28" height="7" 
          rx="2" ry="2" 
          fill="url(#shineGradient)"
          opacity="0.7"/>
    
    <!-- Side highlight for realism -->
    <rect x="7.5" y="23" width="2.5" height="28" 
          rx="1.25" ry="1.25" 
          fill="#ffffff"
          opacity="0.3"/>
  </g>
  
  <!-- Keyhole with advanced styling - centered for balanced proportions -->
  <g>
    <!-- Keyhole circle with depth -->
    <circle cx="22" cy="35" r="3.8" fill="#0d47a1"/>
    <circle cx="22" cy="35" r="3.8" fill="url(#innerShadow)"/>
    <circle cx="22" cy="34.5" r="3.2" fill="#1a237e"/>
    
    <!-- Keyhole slot with beveled edges -->
    <rect x="20.2" y="37.5" width="3.6" height="8" 
          rx="1.8" ry="1.8" 
          fill="#0d47a1"/>
    <rect x="20.2" y="37.5" width="3.6" height="8" 
          rx="1.8" ry="1.8" 
          fill="url(#innerShadow)"/>
    <rect x="20.7" y="38" width="2.6" height="7" 
          rx="1.3" ry="1.3" 
          fill="#1a237e"/>
    
    <!-- Keyhole inner highlight for realism -->
    <circle cx="22" cy="34" r="1.2" fill="#ffffff" opacity="0.2"/>
  </g>
  
  <!-- Additional metallic details - repositioned for balance -->
  <g>
    <!-- Corner rivets -->
    <circle cx="11" cy="28" r="1.3" fill="url(#silverGradient)"/>
    <circle cx="33" cy="28" r="1.3" fill="url(#silverGradient)"/>
    <circle cx="11" cy="46" r="1.3" fill="url(#silverGradient)"/>
    <circle cx="33" cy="46" r="1.3" fill="url(#silverGradient)"/>
    
    <!-- Rivet highlights -->
    <circle cx="11" cy="27.5" r="0.7" fill="#ffffff" opacity="0.8"/>
    <circle cx="33" cy="27.5" r="0.7" fill="#ffffff" opacity="0.8"/>
    <circle cx="11" cy="45.5" r="0.7" fill="#ffffff" opacity="0.8"/>
    <circle cx="33" cy="45.5" r="0.7" fill="#ffffff" opacity="0.8"/>
    
    <!-- Brand emboss detail -->
    <rect x="17" y="42" width="10" height="1.5" 
          rx="0.75" ry="0.75" 
          fill="#1565c0"
          opacity="0.6"/>
  </g>
  
  <!-- Final shine overlay - adjusted for balanced proportions -->
  <rect x="9" y="24.5" width="14" height="3.5" 
        rx="1.75" ry="1.75" 
        fill="#ffffff"
        opacity="0.5"/>
</svg>